<?xml version="1.0" encoding="UTF-8"?>
<svg version="1.1" xmlns="http://www.w3.org/2000/svg" width="500" height="500">
<path d="M0 0 C165 0 330 0 500 0 C500 165 500 330 500 500 C335 500 170 500 0 500 C0 335 0 170 0 0 Z " fill="#FEFEFE" transform="translate(0,0)"/>
<path d="M0 0 C4.00009099 2.84621859 7.34251025 5.45011989 8.609375 10.36328125 C12.99079144 39.9378422 -2.05946073 73.66334407 -14 100 C-12.72125 99.835 -11.4425 99.67 -10.125 99.5 C-5.71501616 98.99600185 -1.40234619 98.95302849 3.03125 99.0625 C5.00344728 99.22465746 5.00344728 99.22465746 6 98 C12.26560112 97.12868138 18.42265958 96.8288113 24.7421875 96.796875 C25.63237579 96.79117493 26.52256409 96.78547485 27.43972778 96.77960205 C29.30355668 96.77022795 31.16740158 96.76364864 33.03125 96.75976562 C35.88830557 96.74995431 38.74467195 96.71881912 41.6015625 96.6875 C43.4192666 96.68097855 45.23697578 96.67572472 47.0546875 96.671875 C48.33434891 96.6533548 48.33434891 96.6533548 49.63986206 96.63446045 C55.57961827 96.65697985 55.57961827 96.65697985 57.70193481 98.38873291 C63.12075635 105.11502748 61.39517488 118.7564681 61 127 C60.68482422 128.16208984 60.68482422 128.16208984 60.36328125 129.34765625 C60.24339844 129.89292969 60.12351562 130.43820313 60 131 C62.24578708 133.24578708 64.069792 133.85650419 67 135 C67.99 135.66 68.98 136.32 70 137 C70 137.99 70 138.98 70 140 C71.32 140 72.64 140 74 140 C74 141.98 74 143.96 74 146 C79.94 146 85.88 146 92 146 C92 147.98 92 149.96 92 152 C86.06 152 80.12 152 74 152 C74 153.65 74 155.3 74 157 C74 157.66 74 158.32 74 159 C74.32205743 161.33491639 74.65458149 163.66842508 75 166 C74.34 166.33 73.68 166.66 73 167 C73.99 167.14695313 73.99 167.14695313 75 167.296875 C77.8773361 167.73147264 80.75232388 168.17972289 83.62695312 168.63183594 C85.3592451 168.9005907 87.09245422 169.16345289 88.82617188 169.42285156 C91.96944828 169.89464353 95.10967724 170.38396422 98.25 170.875 C99.26707031 171.02420898 100.28414063 171.17341797 101.33203125 171.32714844 C107.47532305 172.30631066 113.76501394 173.43945036 119 177 C120.24316406 179.13232422 120.24316406 179.13232422 121 181 C116.20186518 184.69087294 111.94074887 185.99667352 106 187 C106.12568359 188.78857422 106.12568359 188.78857422 106.25390625 190.61328125 C106.35708136 192.17966708 106.45992889 193.74607451 106.5625 195.3125 C106.61857422 196.09818359 106.67464844 196.88386719 106.73242188 197.69335938 C106.78076172 198.45068359 106.82910156 199.20800781 106.87890625 199.98828125 C106.9260376 200.68477783 106.97316895 201.38127441 107.02172852 202.09887695 C107 204 107 204 106 207 C104.02 207 102.04 207 100 207 C100 209.97 100 212.94 100 216 C98.02 216.99 98.02 216.99 96 218 C95.525625 218.845625 95.05125 219.69125 94.5625 220.5625 C93 223 93 223 90.84765625 223.63671875 C86.3096378 224.21564291 81.75026738 224.2314954 77.1796875 224.328125 C73.8311302 224.66974283 73.8311302 224.66974283 72.1953125 227.421875 C71.80085937 228.27265625 71.40640625 229.1234375 71 230 C68.23776722 232.76223278 65.79293383 232.57856291 62 233 C62 233.66 62 234.32 62 235 C61.01 235 60.02 235 59 235 C59 235.66 59 236.32 59 237 C60.65 237.33 62.3 237.66 64 238 C62.02 238.99 62.02 238.99 60 240 C60.04125 240.78375 60.0825 241.5675 60.125 242.375 C60 245 60 245 58 247 C55.73091169 247.41311504 53.44133127 247.71571734 51.1484375 247.96484375 C50.45674469 248.04368301 49.76505188 248.12252228 49.05239868 248.20375061 C46.82743077 248.45657724 44.60144135 248.6980225 42.375 248.9375 C33.09128818 249.94763942 23.9284359 251.11394118 14.76217651 252.91571045 C8.37178029 254.15903541 1.96790085 254.97447238 -4.5 255.6875 C-5.60085938 255.81705078 -6.70171875 255.94660156 -7.8359375 256.08007812 C-12.48048423 256.60634871 -17.04107166 257.07467292 -21.71875 257.01953125 C-22.8015625 257.01308594 -23.884375 257.00664062 -25 257 C-25.33 257.33 -25.66 257.66 -26 258 C-33.92374523 259.45538178 -41.97580063 259.08764295 -50 259 C-50 257.68 -50 256.36 -50 255 C-51.32 254.67 -52.64 254.34 -54 254 C-54 253.34 -54 252.68 -54 252 C-55.24136719 252.11859375 -56.48273438 252.2371875 -57.76171875 252.359375 C-59.40355514 252.49072191 -61.04548798 252.62086721 -62.6875 252.75 C-63.50412109 252.83121094 -64.32074219 252.91242188 -65.16210938 252.99609375 C-69.30006854 253.29764543 -71.34466485 253.40182392 -74.96875 251.1796875 C-80 245.78076923 -80 245.78076923 -80 242 C-80.66 242 -81.32 242 -82 242 C-82 241.01 -82 240.02 -82 239 C-83.65 239 -85.3 239 -87 239 C-87 238.67 -87 238.34 -87 238 C-85.35 238 -83.7 238 -82 238 C-82 237.34 -82 236.68 -82 236 C-84.20923793 236.453953 -86.41735553 236.91336006 -88.625 237.375 C-89.85476562 237.63023437 -91.08453125 237.88546875 -92.3515625 238.1484375 C-95.95634107 238.92500028 -95.95634107 238.92500028 -99.1875 240.09375 C-102.98591304 241.31768309 -106.03368549 241.13676947 -110 241 C-110 241.66 -110 242.32 -110 243 C-108.68 243 -107.36 243 -106 243 C-106 243.66 -106 244.32 -106 245 C-125.54195804 249.55721551 -125.54195804 249.55721551 -134 245 C-134 244.34 -134 243.68 -134 243 C-134.66 243 -135.32 243 -136 243 C-136 242.34 -136 241.68 -136 241 C-136.66 241 -137.32 241 -138 241 C-139.15269066 238.28294344 -140.08213278 235.67778678 -140.8125 232.8125 C-142.08174242 228.73756381 -143.80592623 225.19966519 -145.78125 221.4296875 C-147.00214754 218.99571869 -148.00278884 216.53233706 -149 214 C-149.515625 212.96875 -150.03125 211.9375 -150.5625 210.875 C-152.31973621 206.88843427 -152.44542762 202.96214678 -152.59375 198.6484375 C-152.83465336 195.93220409 -152.83465336 195.93220409 -154.42578125 193.68359375 C-156.51244663 190.12642472 -157.02813512 186.71935408 -157.6875 182.6875 C-157.81705078 181.94693359 -157.94660156 181.20636719 -158.08007812 180.44335938 C-158.3958706 178.63047666 -158.69920583 176.81543149 -159 175 C-149.89498425 169.16396567 -140.37378712 166.56296649 -130 164 C-128.66662406 163.66683716 -127.33327872 163.3335517 -126 163 C-126 162.01 -126 161.02 -126 160 C-126.66 160 -127.32 160 -128 160 C-131.04019721 154.93300466 -132.1183221 149.67427278 -133.3515625 143.92578125 C-133.95609744 140.95927158 -133.95609744 140.95927158 -135 138 C-132.50470195 132.39123338 -129.17281358 130.78022689 -123.58935547 128.57714844 C-122.63174316 128.22168945 -121.67413086 127.86623047 -120.6875 127.5 C-118.68358676 126.72397637 -116.67968053 125.94793468 -114.67578125 125.171875 C-113.69947754 124.80126953 -112.72317383 124.43066406 -111.71728516 124.04882812 C-109.42746503 123.16499459 -107.16985136 122.24084522 -104.91796875 121.265625 C-95.61958333 117.2879254 -86.22011893 114.8830785 -76.39648438 112.57910156 C-72.82520035 111.71611402 -69.29011983 110.73153558 -65.75 109.75 C-60.81149569 108.41439578 -56.09684841 107.41606926 -51 107 C-51.04125 105.906875 -51.0825 104.81375 -51.125 103.6875 C-51 100 -51 100 -49 97 C-48.70940589 95.11260591 -48.49255746 93.21362617 -48.3125 91.3125 C-45.23634556 68.04908208 -36.09656084 44.5806088 -25 24 C-24.42378906 22.90816406 -23.84757813 21.81632812 -23.25390625 20.69140625 C-11.00733322 -1.51081044 -11.00733322 -1.51081044 0 0 Z " fill="#8B9EBE" transform="translate(267,69)"/>
<path d="M0 0 C-1.32723607 3.3365085 -2.68550258 6.65804393 -4.06640625 9.97265625 C-12.82755692 31.22646042 -20.09099736 52.66011122 -25 75.125 C-25.2221669 76.13797653 -25.2221669 76.13797653 -25.44882202 77.17141724 C-27.64280353 87.28452556 -29.12976508 97.07985556 -29.1875 107.4375 C-29.20167969 108.61183594 -29.21585937 109.78617187 -29.23046875 110.99609375 C-29.2325577 114.18137324 -29.2325577 114.18137324 -27 117 C-26.3671875 119.26171875 -26.3671875 119.26171875 -25.875 121.6875 C-25.70742187 122.49574219 -25.53984375 123.30398438 -25.3671875 124.13671875 C-25.24601562 124.75160156 -25.12484375 125.36648438 -25 126 C-12.25097652 125.69293769 0.33747392 125.03638773 13 123.5 C28.92670555 121.62488706 44.88565385 121.49447917 60.90625 121.29101562 C80.02161371 121.97886234 80.02161371 121.97886234 98 117 C98.66 116.67 99.32 116.34 100 116 C100.58963678 113.75775342 100.58963678 113.75775342 100 111 C94.15002511 104.91159818 87.18394381 102.07548798 79.5 98.8125 C78.30246094 98.29236328 77.10492188 97.77222656 75.87109375 97.23632812 C72.58581128 95.81197808 69.29446944 94.40294144 66 93 C64.55192688 92.3792711 63.10397299 91.75826381 61.65625 91.13671875 C60.7796875 90.76160156 59.903125 90.38648438 59 90 C62.6814654 87.73798743 66.48551094 87.36608292 70.6953125 86.93359375 C71.86756882 86.80868813 71.86756882 86.80868813 73.06350708 86.68125916 C85.04034032 85.49979078 97.09398467 85.31042055 109.11767578 84.97094727 C124.9966768 84.50885993 140.42859709 83.23998823 156 80 C157.13495819 83.40487457 157.36402865 86.42096431 157.625 90 C157.76808594 91.85625 157.76808594 91.85625 157.9140625 93.75 C158 97 158 97 157 100 C155.02 100 153.04 100 151 100 C151 102.97 151 105.94 151 109 C149.02 109.99 149.02 109.99 147 111 C146.525625 111.845625 146.05125 112.69125 145.5625 113.5625 C144 116 144 116 141.84765625 116.63671875 C137.3096378 117.21564291 132.75026738 117.2314954 128.1796875 117.328125 C124.8311302 117.66974283 124.8311302 117.66974283 123.1953125 120.421875 C122.80085937 121.27265625 122.40640625 122.1234375 122 123 C119.23776722 125.76223278 116.79293383 125.57856291 113 126 C113 126.66 113 127.32 113 128 C112.01 128 111.02 128 110 128 C110 128.66 110 129.32 110 130 C111.65 130.33 113.3 130.66 115 131 C113.02 131.99 113.02 131.99 111 133 C111.04125 133.78375 111.0825 134.5675 111.125 135.375 C111 138 111 138 109 140 C106.73091169 140.41311504 104.44133127 140.71571734 102.1484375 140.96484375 C101.45674469 141.04368301 100.76505188 141.12252228 100.05239868 141.20375061 C97.82743077 141.45657724 95.60144135 141.6980225 93.375 141.9375 C84.09128818 142.94763942 74.9284359 144.11394118 65.76217651 145.91571045 C59.37178029 147.15903541 52.96790085 147.97447238 46.5 148.6875 C45.39914062 148.81705078 44.29828125 148.94660156 43.1640625 149.08007812 C38.51951577 149.60634871 33.95892834 150.07467292 29.28125 150.01953125 C28.1984375 150.01308594 27.115625 150.00664062 26 150 C25.67 150.33 25.34 150.66 25 151 C17.07625477 152.45538178 9.02419937 152.08764295 1 152 C1 150.68 1 149.36 1 148 C-0.32 147.67 -1.64 147.34 -3 147 C-3 146.34 -3 145.68 -3 145 C-4.24136719 145.11859375 -5.48273438 145.2371875 -6.76171875 145.359375 C-8.40355514 145.49072191 -10.04548798 145.62086721 -11.6875 145.75 C-12.50412109 145.83121094 -13.32074219 145.91242188 -14.16210938 145.99609375 C-18.30006854 146.29764543 -20.34466485 146.40182392 -23.96875 144.1796875 C-29 138.78076923 -29 138.78076923 -29 135 C-29.66 135 -30.32 135 -31 135 C-31 134.01 -31 133.02 -31 132 C-32.65 132 -34.3 132 -36 132 C-36 131.67 -36 131.34 -36 131 C-34.35 131 -32.7 131 -31 131 C-31 130.34 -31 129.68 -31 129 C-33.20923793 129.453953 -35.41735553 129.91336006 -37.625 130.375 C-38.85476562 130.63023437 -40.08453125 130.88546875 -41.3515625 131.1484375 C-44.95634107 131.92500028 -44.95634107 131.92500028 -48.1875 133.09375 C-51.98591304 134.31768309 -55.03368549 134.13676947 -59 134 C-59 134.66 -59 135.32 -59 136 C-57.68 136 -56.36 136 -55 136 C-55 136.66 -55 137.32 -55 138 C-74.54195804 142.55721551 -74.54195804 142.55721551 -83 138 C-83 137.34 -83 136.68 -83 136 C-83.66 136 -84.32 136 -85 136 C-85 135.34 -85 134.68 -85 134 C-85.66 134 -86.32 134 -87 134 C-88.15269066 131.28294344 -89.08213278 128.67778678 -89.8125 125.8125 C-91.08174242 121.73756381 -92.80592623 118.19966519 -94.78125 114.4296875 C-96.00214754 111.99571869 -97.00278884 109.53233706 -98 107 C-98.515625 105.96875 -99.03125 104.9375 -99.5625 103.875 C-101.31973621 99.88843427 -101.44542762 95.96214678 -101.59375 91.6484375 C-101.83465336 88.93220409 -101.83465336 88.93220409 -103.42578125 86.68359375 C-105.51244663 83.12642472 -106.02813512 79.71935408 -106.6875 75.6875 C-106.81705078 74.94693359 -106.94660156 74.20636719 -107.08007812 73.44335938 C-107.3958706 71.63047666 -107.69920583 69.81543149 -108 68 C-98.89498425 62.16396567 -89.37378712 59.56296649 -79 57 C-77.66662406 56.66683716 -76.33327872 56.3335517 -75 56 C-75 55.01 -75 54.02 -75 53 C-75.66 53 -76.32 53 -77 53 C-80.04019721 47.93300466 -81.1183221 42.67427278 -82.3515625 36.92578125 C-82.95609744 33.95927158 -82.95609744 33.95927158 -84 31 C-81.50470195 25.39123338 -78.17281358 23.78022689 -72.58935547 21.57714844 C-71.63174316 21.22168945 -70.67413086 20.86623047 -69.6875 20.5 C-67.68358676 19.72397637 -65.67968053 18.94793468 -63.67578125 18.171875 C-62.69947754 17.80126953 -61.72317383 17.43066406 -60.71728516 17.04882812 C-58.42746503 16.16499459 -56.16985136 15.24084522 -53.91796875 14.265625 C-44.6260853 10.29070683 -35.23063263 7.88322598 -25.4140625 5.57910156 C-21.75810826 4.70208665 -18.12883298 3.73235623 -14.5 2.75 C-12.33370396 2.16529178 -10.16710655 1.58169702 -8 1 C-7.2884375 0.79890625 -6.576875 0.5978125 -5.84375 0.390625 C-4 0 -4 0 0 0 Z " fill="#030919" transform="translate(216,176)"/>
<path d="M0 0 C0.89018829 -0.00570007 1.78037659 -0.01140015 2.69754028 -0.01727295 C4.56136918 -0.02664705 6.42521408 -0.03322636 8.2890625 -0.03710938 C11.14611807 -0.04692069 14.00248445 -0.07805588 16.859375 -0.109375 C18.6770791 -0.11589645 20.49478828 -0.12115028 22.3125 -0.125 C23.59216141 -0.1435202 23.59216141 -0.1435202 24.89767456 -0.16241455 C30.83743077 -0.13989515 30.83743077 -0.13989515 32.95974731 1.59185791 C38.37856885 8.31815248 36.65298738 21.9595931 36.2578125 30.203125 C35.94263672 31.36521484 35.94263672 31.36521484 35.62109375 32.55078125 C35.50121094 33.09605469 35.38132812 33.64132813 35.2578125 34.203125 C37.50359958 36.44891208 39.3276045 37.05962919 42.2578125 38.203125 C43.2478125 38.863125 44.2378125 39.523125 45.2578125 40.203125 C45.2578125 41.193125 45.2578125 42.183125 45.2578125 43.203125 C46.2478125 43.203125 47.2378125 43.203125 48.2578125 43.203125 C48.2578125 45.183125 48.2578125 47.163125 48.2578125 49.203125 C42.3773833 50.02152872 36.5833412 50.43033189 30.65234375 50.6328125 C28.77602104 50.70454053 26.89971964 50.77682785 25.0234375 50.84960938 C23.56454102 50.90507935 23.56454102 50.90507935 22.07617188 50.96166992 C-16.34092812 51.70653425 -16.34092812 51.70653425 -53.7421875 59.203125 C-53.7421875 59.863125 -53.7421875 60.523125 -53.7421875 61.203125 C-46.67347153 63.53748108 -39.73454316 65.05198993 -32.3671875 66.078125 C-30.65015625 66.32248291 -30.65015625 66.32248291 -28.8984375 66.57177734 C-13.27793664 68.6801505 2.43545486 70.03058108 18.13037109 71.45263672 C19.23424164 71.5540094 20.33811218 71.65538208 21.47543335 71.75982666 C23.54507633 71.94935448 25.61506426 72.135172 27.68545532 72.31634521 C33.67890784 72.86602385 39.56553112 73.693825 45.48999023 74.75717163 C48.28749035 75.20790671 51.05849154 75.48417853 53.8828125 75.703125 C59.11811542 76.13126312 64.13064489 77.0913055 69.2578125 78.203125 C71.1322168 78.5810913 73.00720621 78.95616932 74.8828125 79.328125 C76.34114583 79.61979167 77.79947917 79.91145833 79.2578125 80.203125 C80.3828125 84.953125 80.3828125 84.953125 79.2578125 87.203125 C73.30133312 89.04191029 67.43404781 89.73546024 61.23828125 90.23046875 C60.25377487 90.31239975 59.26926849 90.39433075 58.25492859 90.47874451 C45.06789963 91.52340048 31.85060322 92.08117494 18.637146 92.67285156 C13.80357294 92.88981495 8.97022958 93.11174892 4.13700867 93.33641052 C1.58488459 93.45462397 -0.96734634 93.57056264 -3.5196991 93.68373108 C-9.137278 93.94160378 -14.7523097 94.23344098 -20.36254883 94.62084961 C-21.77507683 94.71601112 -21.77507683 94.71601112 -23.21614075 94.81309509 C-25.76734178 95.2070089 -27.52117328 95.91677936 -29.7421875 97.203125 C-29.00634741 100.4983767 -29.00634741 100.4983767 -25.671875 102.03515625 C-24.32620046 102.70723325 -22.97412684 103.36659258 -21.6171875 104.015625 C-20.54271362 104.5422876 -20.54271362 104.5422876 -19.4465332 105.07958984 C-14.6844054 107.37674536 -9.85925657 109.4212056 -4.9296875 111.328125 C12.47850163 118.11436822 12.47850163 118.11436822 15.2578125 124.203125 C8.42550884 125.96436249 2.16789742 126.49731903 -4.87109375 126.51171875 C-7.04801866 126.53483235 -9.22493913 126.55836737 -11.40185547 126.58227539 C-13.09396149 126.59606735 -13.09396149 126.59606735 -14.82025146 126.61013794 C-32.55969672 126.76534915 -50.13905778 127.15294346 -67.77172852 129.18725586 C-75.80085644 130.11099117 -83.66057696 130.36121358 -91.7421875 130.203125 C-90.99195313 129.48511719 -90.24171875 128.76710938 -89.46875 128.02734375 C-70.61691733 108.50030218 -63.76074543 75.48734227 -55.7421875 50.203125 C-55.43861328 49.24792969 -55.13503906 48.29273438 -54.82226562 47.30859375 C-52.68889349 40.41449043 -51.13686193 33.41098088 -49.63671875 26.35546875 C-49.43433594 25.45957031 -49.23195312 24.56367188 -49.0234375 23.640625 C-48.76143555 22.43212891 -48.76143555 22.43212891 -48.49414062 21.19921875 C-47.7421875 19.203125 -47.7421875 19.203125 -44.7421875 17.203125 C-43.79694604 14.62742145 -43.79694604 14.62742145 -43.1796875 11.703125 C-41.94630414 6.40724164 -41.94630414 6.40724164 -39.7421875 4.203125 C-33.79673306 2.35088727 -27.86077553 2.00854228 -21.67578125 2.23046875 C-19.7344078 2.42769116 -19.7344078 2.42769116 -18.7421875 1.203125 C-12.47658638 0.33180638 -6.31952792 0.0319363 0 0 Z " fill="#020918" transform="translate(291.7421875,165.796875)"/>
<path d="M0 0 C0.33 0 0.66 0 1 0 C1 1.98 1 3.96 1 6 C6.94 6 12.88 6 19 6 C19 7.98 19 9.96 19 12 C13.06 12 7.12 12 1 12 C1 13.65 1 15.3 1 17 C1 17.66 1 18.32 1 19 C1.32205743 21.33491639 1.65458149 23.66842508 2 26 C1.34 26.33 0.68 26.66 0 27 C0.66 27.09796875 1.32 27.1959375 2 27.296875 C4.8773361 27.73147264 7.75232388 28.17972289 10.62695312 28.63183594 C12.3592451 28.9005907 14.09245422 29.16345289 15.82617188 29.42285156 C18.96944828 29.89464353 22.10967724 30.38396422 25.25 30.875 C26.26707031 31.02420898 27.28414062 31.17341797 28.33203125 31.32714844 C34.47532305 32.30631066 40.76501394 33.43945036 46 37 C47.24316406 39.13232422 47.24316406 39.13232422 48 41 C43.6721438 44.32912016 40.25924401 45.60456831 34.85546875 46.41015625 C33.93701172 46.70212891 33.93701172 46.70212891 33 47 C32.67 47.99 32.34 48.98 32 50 C32 49.01 32 48.02 32 47 C31.35530762 47.297854 30.71061523 47.59570801 30.04638672 47.90258789 C15.07267226 53.29662912 -2.43671692 52.61956173 -18.125 53.0625 C-41.10345839 52.23207739 -41.10345839 52.23207739 -63 57 C-62.12263184 57.37286133 -61.24526367 57.74572266 -60.34130859 58.12988281 C-57.06230661 59.52529225 -53.7867819 60.92870937 -50.51220703 62.33447266 C-49.0990694 62.93982634 -47.6850189 63.54305391 -46.27001953 64.14404297 C-44.22700609 65.0122157 -42.187484 65.88818247 -40.1484375 66.765625 C-39.210569 67.16119598 -39.210569 67.16119598 -38.25375366 67.5647583 C-32.57532607 70.02440978 -26.88318856 73.0713376 -23 78 C-22.375 80.5 -22.375 80.5 -23 83 C-34.04826035 92.03948574 -52.78777795 89.16026797 -66.26644897 89.33157349 C-82.4818042 89.54934532 -98.46120188 89.99965356 -114.56518555 91.97729492 C-125.06607772 93.24113732 -135.43895547 93.29366447 -146 93 C-143.82899431 88.13694725 -143.82899431 88.13694725 -141 86 C-136.62663998 85.43212243 -132.34582946 85.72252943 -127.95941162 85.94842529 C-125.05746647 86.02480892 -122.24331581 85.71791167 -119.36328125 85.37890625 C-118.23414307 85.2485498 -117.10500488 85.11819336 -115.94165039 84.98388672 C-114.74403076 84.8448291 -113.54641113 84.70577148 -112.3125 84.5625 C-94.79410258 82.69982804 -77.26351519 82.49886964 -59.65942383 82.29125977 C-58.55999451 82.27737717 -57.46056519 82.26349457 -56.32781982 82.24919128 C-54.26207472 82.22448835 -52.19627046 82.20416489 -50.13043213 82.18916321 C-44.34895689 82.12521213 -38.73623137 81.73400792 -33 81 C-36.82925473 76.71064101 -40.52628849 74.44804766 -45.75 72.125 C-46.48718262 71.78621826 -47.22436523 71.44743652 -47.98388672 71.09838867 C-53.97393526 68.37615839 -60.0527796 65.86231778 -66.20214844 63.52197266 C-71.04204421 61.61897591 -74.86084326 59.15543507 -79 56 C-78.1875 54.0625 -78.1875 54.0625 -77 52 C-74.29496392 51.09832131 -72.365119 50.79805521 -69.55810547 50.62695312 C-68.65713135 50.57015884 -67.75615723 50.51336456 -66.82788086 50.45484924 C-65.85085205 50.39756149 -64.87382324 50.34027374 -63.8671875 50.28125 C-62.85100342 50.21876572 -61.83481934 50.15628143 -60.7878418 50.09190369 C-57.48380693 49.89027592 -54.17943558 49.69494114 -50.875 49.5 C-48.61213655 49.36345175 -46.34927847 49.22681437 -44.08642578 49.09008789 C-32.07943762 48.37235501 -20.08035727 47.7438931 -8.05834961 47.34375 C5.00107437 46.87461937 18.04346736 45.69326914 31 44 C31 42.02 31 40.04 31 38 C29.72382813 37.79503906 28.44765625 37.59007812 27.1328125 37.37890625 C25.46351379 37.10694185 23.79424447 36.83479709 22.125 36.5625 C21.28324219 36.42779297 20.44148437 36.29308594 19.57421875 36.15429688 C18.76855469 36.02216797 17.96289062 35.89003906 17.1328125 35.75390625 C16.01737061 35.57323608 16.01737061 35.57323608 14.87939453 35.38891602 C13 35 13 35 11 34 C6.02648075 33.16602573 1.00513861 32.61323513 -4 32 C-4.85029785 31.89429688 -5.7005957 31.78859375 -6.57666016 31.6796875 C-17.74960169 30.30184492 -28.92964411 29.07793746 -40.140625 28.05859375 C-73.45192877 25.02706668 -73.45192877 25.02706668 -86.75 22.9375 C-87.72976807 22.78740479 -88.70953613 22.63730957 -89.71899414 22.48266602 C-94.63650703 21.65427097 -98.63341324 20.55199524 -103 18 C-102.505 16.515 -102.505 16.515 -102 15 C-94.74287071 11.87071626 -86.40701268 11.22254594 -78.625 10.375 C-77.07425781 10.19324219 -77.07425781 10.19324219 -75.4921875 10.0078125 C-61.43527709 8.39931031 -47.36102428 7.68355008 -33.23266602 7.07006836 C-30.17645747 6.93701927 -27.1204564 6.7997848 -24.06445312 6.66210938 C-22.09896928 6.57527282 -20.13347482 6.48867584 -18.16796875 6.40234375 C-16.81459663 6.34142799 -16.81459663 6.34142799 -15.43388367 6.27928162 C-10.28340859 6.0583877 -5.15522624 5.96146954 0 6 C0 4.02 0 2.04 0 0 Z " fill="#2B5EB5" transform="translate(340,209)"/>
<path d="M0 0 C6.73076469 0.57774804 13.21758841 1.36534128 19 5 C18.6541378 14.335037 16.69503638 22.77668466 14 31.6875 C13.70038361 32.6955368 13.70038361 32.6955368 13.39471436 33.72393799 C5.11807501 61.56070966 -4.94462255 89.05639933 -20 114 C-21.47968324 113.85950482 -22.95874516 113.71245174 -24.4375 113.5625 C-25.67306641 113.44068359 -25.67306641 113.44068359 -26.93359375 113.31640625 C-29 113 -29 113 -30 112 C-31.79276041 91.01588632 -25.60233997 70.00042769 -20 50 C-19.77666992 49.18708496 -19.55333984 48.37416992 -19.32324219 47.53662109 C-17.08175249 39.39548969 -14.5856873 31.51697792 -11.18359375 23.76953125 C-9.99295258 20.9835095 -8.98635362 18.17649063 -8 15.3125 C-6.16756156 10.15923435 -3.9454575 3.9454575 0 0 Z " fill="#8B9EBD" transform="translate(221,177)"/>
<path d="M0 0 C4.00009099 2.84621859 7.34251025 5.45011989 8.609375 10.36328125 C13.02989931 40.20182036 -1.94644312 76.13151742 -15.60546875 102.03125 C-16.91726882 104.8238776 -17.63778618 107.22896403 -18.1875 110.25 C-18.455625 111.4875 -18.72375 112.725 -19 114 C-19.66773438 114.32484375 -20.33546875 114.6496875 -21.0234375 114.984375 C-22.00183594 115.48710937 -22.00183594 115.48710937 -23 116 C-23.52325818 117.81350893 -23.52325818 117.81350893 -23.4375 120 C-23.71438457 124.9932136 -24.80825166 129.4862347 -26.17578125 134.265625 C-26.50881256 135.4444223 -26.50881256 135.4444223 -26.84857178 136.64703369 C-29.26301617 145.08696527 -31.95871902 153.42823823 -34.75 161.75 C-35.00978638 162.5272644 -35.26957275 163.30452881 -35.53723145 164.10534668 C-39.84446394 176.956035 -44.42385876 189.63596904 -50 202 C-50.34514648 202.76731445 -50.69029297 203.53462891 -51.04589844 204.32519531 C-58.46005894 220.55280859 -58.46005894 220.55280859 -65 226 C-65.99 226.33 -66.98 226.66 -68 227 C-69.65637688 228.63044124 -69.65637688 228.63044124 -71.1875 230.5625 C-71.71730469 231.20316406 -72.24710938 231.84382812 -72.79296875 232.50390625 C-73.39044922 233.24447266 -73.39044922 233.24447266 -74 234 C-74.99 233.67 -75.98 233.34 -77 233 C-77.66015625 231.0390625 -77.66015625 231.0390625 -78.0625 228.625 C-78.63170911 225.29648197 -79.05951616 223.91072575 -81 221 C-81.265625 218.13671875 -81.265625 218.13671875 -81.25 214.6875 C-81.25515625 213.57761719 -81.2603125 212.46773437 -81.265625 211.32421875 C-80.32279083 188.08017515 -73.53344826 164.33878867 -66 142.4375 C-65.75509827 141.71986481 -65.51019653 141.00222961 -65.25787354 140.2628479 C-61.5511319 129.4836705 -57.09720788 119.19441576 -52 109 C-51.72904124 106.73340843 -51.55512003 104.46718841 -51.37890625 102.19140625 C-51 100 -51 100 -49 97 C-48.70940589 95.11260591 -48.49255746 93.21362617 -48.3125 91.3125 C-45.23634556 68.04908208 -36.09656084 44.5806088 -25 24 C-24.42378906 22.90816406 -23.84757812 21.81632812 -23.25390625 20.69140625 C-11.00733322 -1.51081044 -11.00733322 -1.51081044 0 0 Z M-10 8 C-21.82619326 21.50352001 -28.41988848 38.28382162 -34.5 54.9375 C-34.75534515 55.63061279 -35.01069031 56.32372559 -35.27377319 57.0378418 C-39.41827217 68.36617253 -43.59449013 80.16529604 -43.1875 92.375 C-43.16042969 93.45523438 -43.13335937 94.53546875 -43.10546875 95.6484375 C-43.07066406 96.42445313 -43.03585938 97.20046875 -43 98 C-42.20335937 98.09796875 -41.40671875 98.1959375 -40.5859375 98.296875 C-34.29301683 99.18492707 -29.98250679 100.03954588 -25 104 C-23.515 104.495 -23.515 104.495 -22 105 C-8.35758366 81.80417495 11.30487129 39.348156 4.42578125 11.69140625 C3.16299919 7.9431484 2.34456083 6.22970722 -1 4 C-4.95820687 4 -7.10412864 5.48135231 -10 8 Z M-47.5390625 109.5 C-51.36399526 116.04533948 -54.09167211 122.69400406 -56.5 129.875 C-58.1957703 134.88487848 -59.9126084 139.84004125 -61.96875 144.71484375 C-64.59345972 151.19570215 -66.2845692 157.92074554 -68 164.6875 C-68.25946411 165.70337692 -68.25946411 165.70337692 -68.52416992 166.73977661 C-73.00232911 184.35223191 -76.95504576 201.72148527 -76 220 C-72.5980513 222.09350689 -69.94727588 222.17942163 -66 222 C-50.54657196 195.66341306 -39.99665523 167.25322971 -31.4375 138 C-30.93549072 136.31064331 -30.93549072 136.31064331 -30.42333984 134.5871582 C-28.38378763 127.38428462 -27.33767069 120.47759528 -27 113 C-37.34389322 107.48478147 -37.34389322 107.48478147 -47.5390625 109.5 Z " fill="#4081EF" transform="translate(267,69)"/>
<path d="M0 0 C0 0.99 0 1.98 0 3 C-14.83046552 9.85181592 -34.17573347 8.6121932 -50.125 9.0625 C-73.10345839 8.23207739 -73.10345839 8.23207739 -95 13 C-94.12263184 13.37286133 -93.24526367 13.74572266 -92.34130859 14.12988281 C-89.06230661 15.52529225 -85.7867819 16.92870937 -82.51220703 18.33447266 C-81.0990694 18.93982634 -79.6850189 19.54305391 -78.27001953 20.14404297 C-76.22700609 21.0122157 -74.187484 21.88818247 -72.1484375 22.765625 C-71.52319183 23.02933899 -70.89794617 23.29305298 -70.25375366 23.5647583 C-64.57532607 26.02440978 -58.88318856 29.0713376 -55 34 C-54.375 36.5 -54.375 36.5 -55 39 C-66.04826035 48.03948574 -84.78777795 45.16026797 -98.26644897 45.33157349 C-114.4818042 45.54934532 -130.46120188 45.99965356 -146.56518555 47.97729492 C-157.06607772 49.24113732 -167.43895547 49.29366447 -178 49 C-175.82899431 44.13694725 -175.82899431 44.13694725 -173 42 C-168.62663998 41.43212243 -164.34582946 41.72252943 -159.95941162 41.94842529 C-157.05746647 42.02480892 -154.24331581 41.71791167 -151.36328125 41.37890625 C-150.23414307 41.2485498 -149.10500488 41.11819336 -147.94165039 40.98388672 C-146.74403076 40.8448291 -145.54641113 40.70577148 -144.3125 40.5625 C-126.79410258 38.69982804 -109.26351519 38.49886964 -91.65942383 38.29125977 C-90.55999451 38.27737717 -89.46056519 38.26349457 -88.32781982 38.24919128 C-86.26207472 38.22448835 -84.19627046 38.20416489 -82.13043213 38.18916321 C-76.34895689 38.12521213 -70.73623137 37.73400792 -65 37 C-68.82925473 32.71064101 -72.52628849 30.44804766 -77.75 28.125 C-78.48718262 27.78621826 -79.22436523 27.44743652 -79.98388672 27.09838867 C-85.97393526 24.37615839 -92.0527796 21.86231778 -98.20214844 19.52197266 C-103.04204421 17.61897591 -106.86084326 15.15543507 -111 12 C-110.1875 10.0625 -110.1875 10.0625 -109 8 C-106.29496392 7.09832131 -104.365119 6.79805521 -101.55810547 6.62695312 C-100.65713135 6.57015884 -99.75615723 6.51336456 -98.82788086 6.45484924 C-97.85085205 6.39756149 -96.87382324 6.34027374 -95.8671875 6.28125 C-94.85100342 6.21876572 -93.83481934 6.15628143 -92.7878418 6.09190369 C-89.48380693 5.89027592 -86.17943558 5.69494114 -82.875 5.5 C-80.61213655 5.36345175 -78.34927847 5.22681437 -76.08642578 5.09008789 C-64.08234156 4.37252859 -52.08618261 3.74504666 -40.06713867 3.34375 C-33.08872045 3.09243396 -26.14443934 2.59936207 -19.1875 2 C-18.2186084 1.9167749 -17.2497168 1.8335498 -16.25146484 1.74780273 C-10.77444221 1.24670503 -5.48595885 -0.15238775 0 0 Z " fill="#2A5EB5" transform="translate(372,253)"/>
<path d="M0 0 C0 2.33333333 0 4.66666667 0 7 C0.32205743 9.33491639 0.65458149 11.66842508 1 14 C-6.55674797 17.77837398 -19.27808186 14.47970376 -27.34765625 13.5390625 C-28.6941546 13.38643333 -30.04070846 13.23429311 -31.38731384 13.08261108 C-34.18879879 12.76562471 -36.98972057 12.44417274 -39.7902832 12.11914062 C-43.34836823 11.70635675 -46.90742159 11.30278397 -50.46691227 10.90232277 C-53.24106042 10.58953649 -56.01475737 10.27289022 -58.78832817 9.95502853 C-60.72825968 9.73307229 -62.66845528 9.51342804 -64.60865784 9.29385376 C-71.79900529 8.45621767 -78.89773954 7.40368338 -86 6 C-83.46379091 3.46379091 -82.16490203 3.5726702 -78.63671875 3.18359375 C-77.53400635 3.05960205 -76.43129395 2.93561035 -75.29516602 2.80786133 C-73.50937134 2.62453247 -73.50937134 2.62453247 -71.6875 2.4375 C-69.84079712 2.24353638 -69.84079712 2.24353638 -67.95678711 2.0456543 C-45.31332131 -0.2514663 -22.73292502 -0.12140663 0 0 Z " fill="#030B1B" transform="translate(341,221)"/>
<path d="M0 0 C6.02838159 0.84577294 12.05430257 1.70676488 18.07861328 2.58105469 C20.82050435 2.97425919 23.56416762 3.35154775 26.30859375 3.7265625 C44.15487107 6.24281125 44.15487107 6.24281125 49 10 C50.21484375 12.12890625 50.21484375 12.12890625 51 14 C46.6721438 17.32912016 43.25924401 18.60456831 37.85546875 19.41015625 C36.93701172 19.70212891 36.93701172 19.70212891 36 20 C35.505 21.485 35.505 21.485 35 23 C34.505 17.06 34.505 17.06 34 11 C32.72382813 10.79503906 31.44765625 10.59007812 30.1328125 10.37890625 C28.46351379 10.10694185 26.79424447 9.83479709 25.125 9.5625 C24.28324219 9.42779297 23.44148438 9.29308594 22.57421875 9.15429688 C21.76855469 9.02216797 20.96289062 8.89003906 20.1328125 8.75390625 C19.01737061 8.57323608 19.01737061 8.57323608 17.87939453 8.38891602 C16 8 16 8 14 7 C11.45802036 6.6087065 8.92608411 6.25520881 6.375 5.9375 C5.31539063 5.80118164 5.31539063 5.80118164 4.234375 5.66210938 C2.4899959 5.43816881 0.74504866 5.21866182 -1 5 C-0.67 3.35 -0.34 1.7 0 0 Z " fill="#6799EB" transform="translate(337,236)"/>
<path d="M0 0 C1.29229896 3.87689689 0.35928701 6.66826523 -0.58984375 10.5078125 C-0.76928528 11.25719086 -0.94872681 12.00656921 -1.13360596 12.77865601 C-1.72500895 15.22996619 -2.33019112 17.67758533 -2.9375 20.125 C-3.14218903 20.96023193 -3.34687805 21.79546387 -3.55776978 22.65600586 C-6.6063863 35.06896384 -10.08150889 47.22906876 -14.14453125 59.3515625 C-16.37341439 66.01389684 -18.26153922 72.76537897 -20.09838867 79.54492188 C-20.32115479 80.35251953 -20.5439209 81.16011719 -20.7734375 81.9921875 C-20.96341309 82.69714355 -21.15338867 83.40209961 -21.34912109 84.12841797 C-22 86 -22 86 -24 89 C-21.32591845 59.89246866 -13.13139556 26.26279112 0 0 Z " fill="#C4CDDD" transform="translate(220,188)"/>
<path d="M0 0 C0.66 0 1.32 0 2 0 C1.56766037 6.83401583 0.39123594 12.86080349 -1.875 19.3125 C-2.17237061 20.18261719 -2.46974121 21.05273438 -2.77612305 21.94921875 C-7.7946092 36.42451265 -13.28079256 50.78794144 -19 65 C-19.33 65 -19.66 65 -20 65 C-17.56635465 42.50172541 -10.17828498 20.1400107 0 0 Z " fill="#C5CEDE" transform="translate(249,98)"/>
<path d="M0 0 C7.83637867 -0.34236606 13.43813648 -0.4974287 19.875 4.4375 C21 6 21 6 21 10 C13.42807172 9.00369365 6.20219443 6.46390862 -1 4 C-0.67 2.68 -0.34 1.36 0 0 Z " fill="#F3E076" transform="translate(222,170)"/>
<path d="M0 0 C5.94 0 11.88 0 18 0 C18 1.98 18 3.96 18 6 C12.06 6 6.12 6 0 6 C0 4.02 0 2.04 0 0 Z " fill="#6EA2F8" transform="translate(341,215)"/>
<path d="M0 0 C0 0.66 0 1.32 0 2 C1.65 1.67 3.3 1.34 5 1 C4.67 1.66 4.34 2.32 4 3 C1.56910675 3.6729424 -0.77980002 4.2153243 -3.25 4.6875 C-3.91902344 4.82994141 -4.58804688 4.97238281 -5.27734375 5.11914062 C-9.14753891 5.88329507 -12.19554472 6.09857333 -16 5 C-16 4.34 -16 3.68 -16 3 C-13.51871424 2.23652746 -11.62460643 2.0078207 -9 2.0625 C-5.51215387 1.98983654 -3.29511964 0 0 0 Z " fill="#7C7F86" transform="translate(173,307)"/>
<path d="M0 0 C6.55925943 0.38979206 11.94526627 1.42113193 18 4 C16.3125 5.125 16.3125 5.125 14 6 C12.30728055 5.4025696 10.64619113 4.71573527 9 4 C5.68462515 3.23608874 2.34664646 2.61084421 -1 2 C-0.67 1.34 -0.34 0.68 0 0 Z " fill="#4D89E9" transform="translate(222,175)"/>
<path d="M0 0 C1.26977059 3.80931176 0.52074507 5.81618993 -0.4375 9.6875 C-0.72496094 10.86699219 -1.01242188 12.04648438 -1.30859375 13.26171875 C-1.53675781 14.16535156 -1.76492187 15.06898438 -2 16 C-2.99 15.67 -3.98 15.34 -5 15 C-4.37321829 11.33827525 -3.35548154 8.1181005 -1.9375 4.6875 C-1.39416016 3.36298828 -1.39416016 3.36298828 -0.83984375 2.01171875 C-0.56269531 1.34785156 -0.28554687 0.68398437 0 0 Z " fill="#BCC7D9" transform="translate(220,188)"/>
<path d="M0 0 C1.67542976 0.28604898 3.34385343 0.61781233 5 1 C3.7260411 3.03833424 2.38938077 5.03852126 1 7 C0.34 7 -0.32 7 -1 7 C-1.04254356 5.00045254 -1.04080783 2.99958364 -1 1 C-0.67 0.67 -0.34 0.34 0 0 Z " fill="#858FA0" transform="translate(192,293)"/>
<path d="M0 0 C0 0.66 0 1.32 0 2 C-3.96 2.66 -7.92 3.32 -12 4 C-11.67 3.01 -11.34 2.02 -11 1 C-7.50970582 -0.47666292 -3.72563614 -0.07164685 0 0 Z " fill="#DADBDD" transform="translate(185,305)"/>
<path d="M0 0 C2.475 0.99 2.475 0.99 5 2 C5 2.99 5 3.98 5 5 C3.02 5.33 1.04 5.66 -1 6 C-0.67 4.02 -0.34 2.04 0 0 Z " fill="#EDF1F7" transform="translate(372,247)"/>
<path d="M0 0 C0 0.66 0 1.32 0 2 C1.65 1.67 3.3 1.34 5 1 C4.67 1.66 4.34 2.32 4 3 C1.93359375 3.4140625 1.93359375 3.4140625 -0.5625 3.625 C-1.38878906 3.69976562 -2.21507812 3.77453125 -3.06640625 3.8515625 C-4.02353516 3.92503906 -4.02353516 3.92503906 -5 4 C-4.67 3.01 -4.34 2.02 -4 1 C-2 0 -2 0 0 0 Z " fill="#8F9299" transform="translate(173,307)"/>
<path d="M0 0 C1.98 0.66 3.96 1.32 6 2 C6 2.99 6 3.98 6 5 C4.02 4.34 2.04 3.68 0 3 C0 2.01 0 1.02 0 0 Z " fill="#4D89E9" transform="translate(234,168)"/>
</svg>
